# xmcd
#
# Track frame offsets: 
#        150
#        22107
#        41121
#        62861
#
# Disc length: 1089 seconds
#
# Revision: 2
# Processed by: cddbd v1.5.2PL0 Copyright (c) Steve Scherf et al.
# Submitted via: ExactAudioCopy v1.0b3
#
DISCID=35043f04
DTITLE=茅原実里 - 純白サンクチュアリィ
DYEAR=2007
DGENRE=Anime
TTITLE0=純白サンクチュアリィ
TTITLE1=Peace of mind ~人魚のささやき
TTITLE2=純白サンクチュアリィ (off vocal)
TTITLE3=Peace of mind ~人魚のささやき (off vocal)
EXTD=
EXTT0=
EXTT1=
EXTT2=
EXTT3=
PLAYORDER=
